<svg xmlns="http://www.w3.org/2000/svg" viewBox="0 0 600 250">
  <!-- Gradient definitions -->
  <defs>
    <linearGradient id="gradientBlue" x1="0%" y1="0%" x2="100%" y2="100%">
      <stop offset="0%" stop-color="#00c3ff" />
      <stop offset="100%" stop-color="#01a1e4" />
    </linearGradient>
    <linearGradient id="gradientSwoosh" x1="0%" y1="0%" x2="100%" y2="0%">
      <stop offset="0%" stop-color="#01a1e4" />
      <stop offset="100%" stop-color="#00c3ff" />
    </linearGradient>
  </defs>

  <!-- Background -->
  <rect width="600" height="250" fill="transparent" />

  <!-- Main text "TREASURI" -->
  <g fill="url(#gradientBlue)">
    <!-- T -->
    <path d="M50,50 H100 V70 H85 V130 H65 V70 H50 Z" />
    
    <!-- R -->
    <path d="M110,50 H150 C160,50 170,60 170,75 C170,85 165,92 155,95 L175,130 H152 L135,97 H130 V130 H110 Z
             M130,70 V82 H145 C147,82 150,80 150,76 C150,72 147,70 145,70 Z" />
    
    <!-- E -->
    <path d="M185,50 H245 V70 H205 V80 H240 V100 H205 V110 H245 V130 H185 Z" />
    
    <!-- A -->
    <path d="M255,50 H275 L310,130 H290 L285,120 H245 L240,130 H220 Z
             M255,100 H275 L265,75 Z" />
    
    <!-- S -->
    <path d="M320,50 H370 V70 H340 V80 H360 C372,80 380,90 380,105 C380,120 372,130 360,130 H320 V110 H355 C357,110 360,108 360,105 C360,102 357,100 355,100 H335 C323,100 315,90 315,75 C315,60 323,50 335,50 Z" />
    
    <!-- U -->
    <path d="M390,50 H410 V105 C410,108 413,110 415,110 H425 C427,110 430,108 430,105 V50 H450 V105 C450,120 442,130 425,130 H415 C398,130 390,120 390,105 Z" />
    
    <!-- R -->
    <path d="M460,50 H500 C510,50 520,60 520,75 C520,85 515,92 505,95 L525,130 H502 L485,97 H480 V130 H460 Z
             M480,70 V82 H495 C497,82 500,80 500,76 C500,72 497,70 495,70 Z" />
    
    <!-- I -->
    <path d="M530,50 H550 V130 H530 Z" />
  </g>

  <!-- Airplane - more detailed and styled -->
  <g transform="translate(520, 65) rotate(-15) scale(0.8)">
    <!-- Airplane body -->
    <path d="M0,0 L70,5 L75,0 L70,-5 L0,-8 L-5,0 Z" fill="#0191ce" />
    
    <!-- Wings -->
    <path d="M20,-5 L10,-30 L40,-30 L50,-5 Z" fill="#0191ce" />
    <path d="M20,5 L10,30 L40,30 L50,5 Z" fill="#0191ce" />
    
    <!-- Tail -->
    <path d="M0,-5 L-15,-15 L-10,-5 L-15,5 L0,5 Z" fill="#0191ce" />
    
    <!-- Windows -->
    <path d="M15,-2 L25,-2 L25,2 L15,2 Z" fill="#ffffff" />
    <path d="M30,-2 L35,-2 L35,2 L30,2 Z" fill="#ffffff" />
    <path d="M40,-2 L45,-2 L45,2 L40,2 Z" fill="#ffffff" />
    
    <!-- Trail -->
    <path d="M-10,0 L-50,0" stroke="#ffffff" stroke-width="2" stroke-dasharray="2,3" />
  </g>

  <!-- Swoosh curved line -->
  <path d="M50,170 C150,220 350,220 550,170" 
        fill="none" 
        stroke="url(#gradientSwoosh)" 
        stroke-width="15" 
        stroke-linecap="round" />
        
  <!-- Subtle trail for the plane -->
  <path d="M470,150 C500,140 520,130 550,110" 
        fill="none" 
        stroke="url(#gradientSwoosh)" 
        stroke-width="6" 
        stroke-opacity="0.3"
        stroke-linecap="round" />
</svg>
